HIERARCHY
ROOT SpineBase
{
  OFFSET 0.000000 0.000000 0.000000
  CHANNELS 6 Xposition Yposition Zposition Zrotation Xrotation Yrotation
  JOINT SpineMid
  {
    OFFSET 0.000000 31.873275 0.000000
    CHANNELS 3 Zrotation Xrotation Yrotation
    JOINT SpineShoulder
    {
      OFFSET -0.340018 23.936908 -1.090859
      CHANNELS 3 Zrotation Xrotation Yrotation
      JOINT Neck
      {
        OFFSET -0.028335 7.964378 -0.455533
        CHANNELS 3 Zrotation Xrotation Yrotation
        JOINT Head
        {
          OFFSET -5.240189 12.609366 -0.431534
          CHANNELS 3 Zrotation Xrotation Yrotation
          End Site
          {
            OFFSET 0 0 0
          }
        }
      }
      JOINT ShoulderLeft
      {
        OFFSET -16.077837 -6.025019 7.571772
        CHANNELS 3 Zrotation Xrotation Yrotation
        JOINT ElbowLeft
        {
          OFFSET -1.943516 -27.763953 4.873630
          CHANNELS 3 Zrotation Xrotation Yrotation
          JOINT WristLeft
          {
            OFFSET -0.561830 -21.286568 0.168925
            CHANNELS 3 Zrotation Xrotation Yrotation
            JOINT HandLeft
            {
              OFFSET -0.777859 -8.091987 0.935254
              CHANNELS 3 Zrotation Xrotation Yrotation
              JOINT HandTipLeft
              {
                OFFSET 0.291738 -7.657617 0.592846
                CHANNELS 3 Zrotation Xrotation Yrotation
                End Site
                {
                  OFFSET 0 0 0
                }
              }
              JOINT ThumbLeft
              {
                OFFSET -2.141593 -1.409705 -2.445804
                CHANNELS 3 Zrotation Xrotation Yrotation
                End Site
                {
                  OFFSET 0 0 0
                }
              }
            }
          }
        }
      }
      JOINT ShoulderRight
      {
        OFFSET 12.894634 -3.287122 -8.600773
        CHANNELS 3 Zrotation Xrotation Yrotation
        JOINT ElbowRight
        {
          OFFSET 8.972259 -23.662791 -4.338815
          CHANNELS 3 Zrotation Xrotation Yrotation
          JOINT WristRight
          {
            OFFSET -1.024254 -20.742543 -12.242822
            CHANNELS 3 Zrotation Xrotation Yrotation
            JOINT HandRight
            {
              OFFSET -3.147948 -6.388721 -3.260830
              CHANNELS 3 Zrotation Xrotation Yrotation
              JOINT HandTipRight
              {
                OFFSET -2.536126 -7.675755 -1.209208
                CHANNELS 3 Zrotation Xrotation Yrotation
                End Site
                {
                  OFFSET 0 0 0
                }
              }
              JOINT ThumbRight
              {
                OFFSET -3.847681 -0.792624 0.195504
                CHANNELS 3 Zrotation Xrotation Yrotation
                End Site
                {
                  OFFSET 0 0 0
                }
              }
            }
          }
        }
      }
    }
  }
  JOINT HipLeft
  {
    OFFSET -6.176823 0.013542 -0.278833
    CHANNELS 3 Zrotation Xrotation Yrotation
    JOINT KneeLeft
    {
      OFFSET 3.374530 -37.024497 4.403099
      CHANNELS 3 Zrotation Xrotation Yrotation
      JOINT AnkleLeft
      {
        OFFSET 8.088519 -35.396489 10.211620
        CHANNELS 3 Zrotation Xrotation Yrotation
        JOINT FootLeft
        {
          OFFSET -2.096927 -8.362926 -3.840664
          CHANNELS 3 Zrotation Xrotation Yrotation
          End Site
          {
            OFFSET 0 0 0
          }
        }
      }
    }
  }
  JOINT HipRight
  {
    OFFSET 6.586171 1.506610 -6.106169
    CHANNELS 3 Zrotation Xrotation Yrotation
    JOINT KneeRight
    {
      OFFSET 10.167161 -34.520399 0.164068
      CHANNELS 3 Zrotation Xrotation Yrotation
      JOINT AnkleRight
      {
        OFFSET 7.514981 -37.387407 10.521212
        CHANNELS 3 Zrotation Xrotation Yrotation
        JOINT FootRight
        {
          OFFSET -1.104286 -8.152153 -5.957412
          CHANNELS 3 Zrotation Xrotation Yrotation
          End Site
          {
            OFFSET 0 0 0
          }
        }
      }
    }
  }
}
MOTION
Frames: 14
Frame Time: 0.033333
-21.265265 81.671775 336.103014 -0.000000 0.000000 24.540521 -0.000000 0.000000 -24.540521 -0.000000 0.000000 0.000000 -0.000000 0.000000 0.000000 0.000000 0.000000 0.000000 -0.000000 0.000000 0.000000 -0.000000 0.000000 0.000000 -0.000000 0.000000 0.000000 -0.000000 0.000000 0.000000 0.000000 0.000000 0.000000 0.000000 0.000000 0.000000 -0.000000 0.000000 0.000000 -0.000000 0.000000 0.000000 -0.000000 0.000000 0.000000 -0.000000 0.000000 0.000000 0.000000 0.000000 0.000000 0.000000 0.000000 0.000000 -0.000000 0.000000 -24.540521 -0.000000 0.000000 0.000000 -0.000000 0.000000 0.000000 0.000000 0.000000 0.000000 -0.000000 0.000000 -24.540521 -0.000000 0.000000 0.000000 -0.000000 0.000000 0.000000 0.000000 0.000000 0.000000
-21.194615 81.803312 335.825312 0.357657 0.507519 25.386324 -0.540710 -0.305164 -25.389348 -0.000000 0.000000 0.000000 -0.000000 0.000000 0.000000 0.000000 0.000000 0.000000 -0.668331 1.164525 -0.192312 -0.866180 0.695537 0.138331 -0.943782 4.903192 -0.789049 2.221332 -4.324229 1.125092 0.000000 0.000000 0.000000 0.000000 0.000000 0.000000 -1.356368 0.646016 0.503051 2.526790 -2.341080 -1.082098 3.699335 -5.986810 2.251587 -1.243245 7.516946 -2.024454 0.000000 0.000000 0.000000 0.000000 0.000000 0.000000 -0.568598 -1.244353 -25.423214 -0.378035 0.860205 0.036327 -0.793328 1.353433 0.034091 0.000000 0.000000 0.000000 -0.540710 -0.305164 -25.389348 -0.000000 0.000000 0.000000 0.955729 -0.833654 -0.582309 0.000000 0.000000 0.000000
-21.179784 81.902715 335.613050 0.669007 0.923987 26.141679 0.000550 0.454389 -26.110745 0.166329 -0.279286 0.003287 -0.636510 -1.052495 -0.045974 0.000000 0.000000 0.000000 -1.830498 1.226887 -0.414647 -1.280086 1.444078 0.258453 -1.399146 8.493133 -1.278223 3.588509 -7.614065 2.113394 0.000000 0.000000 0.000000 0.000000 0.000000 0.000000 -3.121291 0.035246 0.805010 4.744172 -4.626951 -1.956471 7.183208 -10.587681 4.508947 -1.941405 13.670096 -3.994739 0.000000 0.000000 0.000000 0.000000 0.000000 0.000000 -1.059356 -2.248422 -26.210871 -0.710776 1.560340 0.067520 -1.322410 2.434968 0.024500 0.000000 0.000000 0.000000 -1.007711 -0.534633 -26.151776 -0.000000 0.000000 0.000000 1.849940 -1.629340 -1.119021 0.000000 0.000000 0.000000
-21.220770 81.969984 335.466228 0.933931 1.249299 26.807815 -0.004430 0.645529 -26.770830 0.236441 -0.417844 0.007028 -1.711513 -0.652366 0.203792 0.000000 0.000000 0.000000 -2.457227 1.937461 -0.572741 -1.241371 2.240946 0.364066 -1.425940 10.819804 -1.596447 4.102469 -9.972643 2.826416 0.000000 0.000000 0.000000 0.000000 0.000000 0.000000 -4.273801 -0.066226 1.029916 6.669468 -6.846622 -2.644995 10.322981 -13.861506 6.567851 -2.226099 18.458666 -5.840744 0.000000 0.000000 0.000000 0.000000 0.000000 0.000000 -1.458410 -3.022150 -26.901677 -1.528726 2.753717 0.110392 -1.064829 2.604722 -0.050227 0.000000 0.000000 0.000000 -1.397074 -0.693627 -26.826455 -0.000000 0.000000 0.000000 2.681373 -2.382729 -1.610744 0.000000 0.000000 0.000000
-21.317574 82.005119 335.384847 1.152380 1.483519 27.385787 -0.015840 0.812111 -27.346698 0.297191 -0.556571 0.011408 -2.093677 -0.608439 0.292147 0.000000 0.000000 0.000000 -2.892847 2.713344 -0.695137 -0.755729 3.081040 0.455902 -1.052540 11.987094 -1.802809 3.762870 -11.531964 3.182558 0.000000 0.000000 0.000000 0.000000 0.000000 0.000000 -5.167465 -0.227562 1.151453 8.316918 -8.989409 -3.165386 13.062824 -15.990748 8.281623 -2.284302 22.023406 -7.461733 0.000000 0.000000 0.000000 0.000000 0.000000 0.000000 -1.754326 -3.574374 -27.494071 -1.762427 3.293736 0.167212 -1.091768 3.022927 -0.215436 0.000000 0.000000 0.000000 -1.705750 -0.786836 -27.412421 -0.000000 0.000000 0.000000 3.449089 -3.089963 -2.058306 0.000000 0.000000 0.000000
-21.470195 82.008120 335.368907 1.324366 1.626845 27.876391 -0.035554 0.953884 -27.837752 0.348221 -0.695927 0.015928 -2.380279 -0.432729 0.395333 0.000000 0.000000 0.000000 -3.138586 3.555006 -0.781699 0.166498 3.957523 0.532013 -0.260080 12.077885 -1.890227 2.536916 -12.380915 3.130636 0.000000 0.000000 0.000000 0.000000 0.000000 0.000000 -5.812032 -0.438235 1.178973 9.698127 -11.044004 -3.531627 15.409081 -17.186583 9.560183 -2.314872 24.558038 -8.742431 0.000000 0.000000 0.000000 0.000000 0.000000 0.000000 -1.937971 -3.912533 -27.986899 -1.855767 3.648517 0.227089 -0.964125 3.228038 -0.460987 0.000000 0.000000 0.000000 -1.931495 -0.818341 -27.908990 -0.000000 0.000000 0.000000 4.152422 -3.747641 -2.462685 0.000000 0.000000 0.000000
-21.695519 81.974957 335.482656 1.488107 1.604449 28.250757 -0.139238 1.063658 -28.215909 0.342455 -0.979441 0.017517 -2.292302 0.393168 0.649522 0.000000 0.000000 0.000000 -3.069429 4.635638 -0.803131 1.773829 5.604741 0.557424 2.284273 10.480081 -1.588529 -0.684178 -12.255327 2.378991 0.000000 0.000000 0.000000 0.000000 0.000000 0.000000 -6.437124 -0.522647 1.162866 11.420697 -13.778276 -3.869441 18.284084 -17.774750 10.563863 -2.889081 25.398856 -8.947265 0.000000 0.000000 0.000000 0.000000 0.000000 0.000000 -2.026341 -3.654559 -28.346425 -1.397028 3.379620 0.291193 -0.298686 2.682994 -0.936277 0.000000 0.000000 0.000000 -2.070393 -0.708402 -28.284396 -0.000000 0.000000 0.000000 5.141646 -4.873159 -2.991022 0.000000 0.000000 0.000000
-21.965025 81.901602 335.626452 1.599302 1.540958 28.623720 -0.198954 1.161786 -28.591343 0.372323 -1.120128 0.021349 -2.356666 0.939039 0.819835 0.000000 0.000000 0.000000 -2.828427 5.696804 -0.811057 3.563470 6.801497 0.539045 5.328473 8.177903 -0.820367 -5.035046 -11.724366 1.111962 0.000000 0.000000 0.000000 0.000000 0.000000 0.000000 -6.685691 -0.864741 1.000597 12.487180 -16.034444 -3.957299 20.239288 -17.273674 10.544882 -3.949176 26.498164 -8.810016 0.000000 0.000000 0.000000 0.000000 0.000000 0.000000 -2.028359 -3.465444 -28.701254 -1.032550 3.313556 0.381432 0.273514 2.137646 -1.398716 0.000000 0.000000 0.000000 -2.142099 -0.585895 -28.656183 -0.000000 0.000000 0.000000 5.849026 -5.683277 -3.361252 0.000000 0.000000 0.000000
-22.285968 81.801704 335.783058 1.607146 1.440935 28.760292 -0.217379 1.220035 -28.729500 0.418715 -1.189446 0.025555 -2.493864 1.336717 0.934749 0.000000 0.000000 0.000000 -2.494758 6.798965 -0.819367 5.607069 7.241659 0.547352 7.828664 5.616712 0.244757 -8.817158 -9.670200 -0.012096 0.000000 0.000000 0.000000 0.000000 0.000000 0.000000 -6.588903 -1.302561 0.751511 12.982564 -17.495781 -3.882020 21.584641 -16.304383 9.738787 -4.932897 27.128030 -8.382662 0.000000 0.000000 0.000000 0.000000 0.000000 0.000000 -1.809556 -3.358357 -28.801139 -0.865119 3.297119 0.451965 0.940612 1.771047 -1.902610 0.000000 0.000000 0.000000 -2.102207 -0.489387 -28.789482 -0.000000 0.000000 0.000000 6.294013 -6.185945 -3.592446 0.000000 0.000000 0.000000
-22.630560 81.697577 335.944602 1.546723 1.309599 28.899014 -0.210259 1.257898 -28.869713 0.460346 -1.238418 0.028578 -2.750106 1.555825 0.966079 0.000000 0.000000 0.000000 -1.952611 7.949273 -0.814412 7.280209 6.727056 0.608812 9.522857 1.928774 1.647101 -12.173318 -6.268232 -1.071363 0.000000 0.000000 0.000000 0.000000 0.000000 0.000000 -6.105199 -1.756549 0.436806 12.788083 -17.879155 -3.650577 21.680254 -15.301310 9.025680 -5.656550 27.424982 -7.962511 0.000000 0.000000 0.000000 0.000000 0.000000 0.000000 -1.462835 -3.283985 -28.893458 -0.877454 3.367179 0.507497 1.346416 1.789144 -2.329330 0.000000 0.000000 0.000000 -1.084556 -0.647875 -28.846926 -0.910674 -0.217114 -0.070163 6.301996 -5.803402 -3.665361 0.000000 0.000000 0.000000
-22.980419 81.604425 336.099835 1.455766 1.145243 28.983207 -0.211614 1.282216 -28.956044 0.495551 -1.270944 0.030435 -3.085407 1.792209 0.994172 0.000000 0.000000 0.000000 -1.290916 9.006379 -0.800677 8.200923 5.721956 0.702423 9.627867 -1.334074 2.648538 -12.954823 -3.890503 -1.362534 0.000000 0.000000 0.000000 0.000000 0.000000 0.000000 -5.450205 -2.061943 0.158405 12.296245 -17.953513 -3.376411 20.909357 -14.194067 8.566932 -4.689455 27.296707 -8.582775 0.000000 0.000000 0.000000 0.000000 0.000000 0.000000 -1.019514 -3.201652 -28.922337 -0.980121 3.364817 0.534292 1.597403 1.895707 -2.648673 0.000000 0.000000 0.000000 -0.588942 -0.526052 -28.870551 -1.196358 -0.397122 -0.127185 5.916084 -5.063790 -3.516140 0.000000 0.000000 0.000000
-23.293985 81.529115 336.229710 1.368872 0.974184 28.969675 -0.217942 1.297253 -28.944573 0.512608 -1.303130 0.030832 -3.320763 2.070863 1.040186 0.000000 0.000000 0.000000 -0.554733 9.933280 -0.782123 8.189130 4.028260 0.818815 8.418402 -3.680330 2.963335 -12.590733 -1.387825 -1.373815 0.000000 0.000000 0.000000 0.000000 0.000000 0.000000 -4.784028 -2.240737 -0.069566 11.718330 -17.655257 -3.136765 19.762442 -12.801121 7.857196 -3.405527 24.479430 -7.948444 0.000000 0.000000 0.000000 0.000000 0.000000 0.000000 -0.638375 -3.153710 -28.867210 -1.125719 3.510788 0.569013 0.783881 2.594925 -2.593888 0.000000 0.000000 0.000000 -0.146376 -0.397482 -28.806433 -0.505637 -0.351533 0.132306 4.791854 -4.671699 -3.780196 0.000000 0.000000 0.000000
-23.525011 81.481360 336.320185 1.338220 0.840896 28.904324 -0.205503 1.300199 -28.879015 0.526088 -1.321645 0.032383 -3.559311 2.282144 1.074638 0.000000 0.000000 0.000000 -0.149082 10.243829 -0.757518 7.250703 2.168987 0.873030 6.144414 -4.676852 2.469557 -9.520643 -0.111705 -0.883708 0.000000 0.000000 0.000000 0.000000 0.000000 0.000000 -4.354408 -2.390474 -0.247304 11.255916 -17.392307 -2.935458 16.137841 -9.661042 7.226571 0.065290 20.836167 -8.322729 0.000000 0.000000 0.000000 0.000000 0.000000 0.000000 -0.424905 -3.117977 -28.780309 -1.147532 3.655589 0.613813 0.561442 2.464736 -2.608689 0.000000 0.000000 0.000000 0.095014 -0.263843 -28.710447 -0.416487 -0.394644 0.172559 4.325383 -3.831996 -3.807185 0.000000 0.000000 0.000000
-23.685591 81.449091 336.362995 1.359206 0.760507 28.828256 -0.197576 1.300357 -28.801603 0.528346 -1.332290 0.033770 -3.650749 2.387490 1.085287 0.000000 0.000000 0.000000 -0.040592 10.038824 -0.723134 6.009665 0.706089 0.839686 3.095359 -4.718208 1.533030 -5.917696 -0.101481 -0.328229 0.000000 0.000000 0.000000 0.000000 0.000000 0.000000 -4.152436 -2.593463 -0.399674 10.786986 -16.980370 -2.695439 13.124418 -7.067483 6.818640 2.125375 17.949796 -8.081600 0.000000 0.000000 0.000000 0.000000 0.000000 0.000000 -0.368605 -3.112107 -28.699226 -1.129124 3.805993 0.653138 0.870654 1.927581 -2.725808 0.000000 0.000000 0.000000 0.192380 -0.172484 -28.621001 -0.340560 -0.409447 0.204740 4.028540 -3.211205 -3.842018 0.000000 0.000000 0.000000
